<?xml version="1.0" encoding="utf-8"?>
<!-- Generator: Adobe Illustrator 27.5.0, SVG Export Plug-In . SVG Version: 6.00 Build 0)  -->
<svg version="1.1" xmlns="http://www.w3.org/2000/svg" xmlns:xlink="http://www.w3.org/1999/xlink" x="0px" y="0px"
	 viewBox="0 0 750 500" style="enable-background:new 0 0 750 500;" xml:space="preserve">
<g id="BACKGROUND">
	<rect x="125" style="fill:#FFFFFF;" width="500" height="500"/>
</g>
<g id="OBJECT" xmlns:vectornator="http://vectornator.io">
	<g>
		
			<line style="fill:none;stroke:#DFE4FF;stroke-width:3;stroke-linecap:round;stroke-miterlimit:10;" x1="19.5" y1="345" x2="738" y2="345"/>
		<ellipse style="fill:#D6DDFC;" cx="649" cy="366.5" rx="77.667" ry="9"/>
		<g>
			<ellipse style="fill:#C9D2F4;" cx="202.92" cy="266.158" rx="31.586" ry="31.015"/>
			
				<line style="fill:none;stroke:#DFE4FF;stroke-width:3;stroke-linecap:round;stroke-miterlimit:10;" x1="202.672" y1="255.334" x2="202.672" y2="344.083"/>
			<path style="fill:none;stroke:#DFE4FF;stroke-width:3;stroke-linecap:round;stroke-miterlimit:10;" d="M190.171,274.414
				c0,0,3.363,9.065,11.989,9.357"/>
			<path style="fill:none;stroke:#DFE4FF;stroke-width:3;stroke-linecap:round;stroke-miterlimit:10;" d="M210.999,270.54
				c0,0-2.233,6.02-7.962,6.214"/>
			<path style="fill:none;stroke:#DFE4FF;stroke-width:3;stroke-linecap:round;stroke-miterlimit:10;" d="M210.779,288.085
				c0,0-2.233,6.02-7.962,6.214"/>
		</g>
		<g>
			<ellipse style="fill:#DFE4FF;" cx="636.52" cy="199.508" rx="54.008" ry="53.032"/>
			
				<line style="fill:none;stroke:#95A1D1;stroke-width:2;stroke-linecap:round;stroke-miterlimit:10;" x1="636.096" y1="181" x2="636.096" y2="332.75"/>
			<path style="fill:none;stroke:#95A1D1;stroke-width:2;stroke-linecap:round;stroke-miterlimit:10;" d="M614.721,213.625
				c0,0,5.75,15.5,20.5,16"/>
			<path style="fill:none;stroke:#95A1D1;stroke-width:2;stroke-linecap:round;stroke-miterlimit:10;" d="M650.334,207
				c0,0-3.818,10.293-13.613,10.625"/>
			<path style="fill:none;stroke:#95A1D1;stroke-width:2;stroke-linecap:round;stroke-miterlimit:10;" d="M649.959,237
				c0,0-3.818,10.293-13.613,10.625"/>
		</g>
		<g>
			<polygon style="fill:#DFE4FF;" points="409.359,172.765 396.572,172.765 394,142.363 412.789,142.363 			"/>
			<rect x="399" y="176" style="fill:#C9D2F4;" width="8.235" height="160.833"/>
			<path style="fill:#DFE4FF;" d="M407.813,179.25h-9.625c-0.932,0-1.688-0.755-1.688-1.687v-1c0-0.932,0.755-1.688,1.688-1.688
				h9.625c0.932,0,1.688,0.756,1.688,1.688v1C409.5,178.495,408.745,179.25,407.813,179.25z"/>
			<path style="fill:#C9D2F4;" d="M409.914,176.11h-13.828c-0.772,0-1.399-0.626-1.399-1.399v-2.797
				c0-0.772,0.626-1.399,1.399-1.399h13.828c0.772,0,1.399,0.626,1.399,1.399v2.797C411.313,175.484,410.686,176.11,409.914,176.11z
				"/>
			<path style="fill:#C9D2F4;" d="M414.75,144.083h-23.083v-1.708c0-1.634,1.324-2.958,2.958-2.958h17.167
				c1.634,0,2.958,1.325,2.958,2.958V144.083z"/>
			<rect x="399.125" y="136.813" style="fill:#C9D2F4;" width="7.875" height="2.625"/>
			<path style="fill:#C9D2F4;" d="M405.583,136.083c0,1.358-1.101,2.458-2.458,2.458s-2.458-1.101-2.458-2.458
				c0-1.358,1.101-2.458,2.458-2.458S405.583,134.726,405.583,136.083z"/>
			<polygon style="fill:#C9D2F4;" points="415,343.5 391,343.5 394,301.833 412,301.833 			"/>
			<path style="fill:#DFE4FF;" d="M411.625,305.25h-16.833c-1.266,0-2.292-1.026-2.292-2.292l0,0c0-1.266,1.026-2.292,2.292-2.292
				h16.833c1.266,0,2.292,1.026,2.292,2.292l0,0C413.917,304.224,412.891,305.25,411.625,305.25z"/>
			<path style="fill:#DFE4FF;" d="M418.333,344.5h-30.167v-2c0-2.485,2.015-4.5,4.5-4.5h21.167c2.485,0,4.5,2.015,4.5,4.5V344.5z"/>
		</g>
		<g>
			<path style="fill:#DFE4FF;" d="M705.676,314.5v18.54c0,17.47-14.16,31.63-31.62,31.63h-98.71V350c0-19.61,15.89-35.5,35.5-35.5
				H705.676z"/>
			<path style="fill:#C9D2F4;" d="M705.676,315.17v17.87c0,17.47-14.16,31.63-31.62,31.63h-9.38v-14c0-19.61,15.9-35.5,35.5-35.5
				H705.676z"/>
		</g>
		<path style="fill:#DFE4FF;" d="M570,68.667c0,0-12.333-30.667-38.667-28C505,43.333,504.333,68.333,464.667,52
			C425,35.667,402,54.333,397.333,69.333L570,68.667z"/>
		<path style="fill:#DFE4FF;" d="M255.174,57.079c0,0-6.703-16.667-21.014-15.217c-14.312,1.449-14.674,15.036-36.232,6.159
			c-21.558-8.877-34.058,1.268-36.594,9.42L255.174,57.079z"/>
	</g>
	<path style="fill:#FF82D4;" d="M231.776,227.164c0,0,1.594-3.603,1.563-5.453c-0.032-1.849-3.476-0.638-3.476-0.638
		s-0.415-4.783-1.722-6.537c-1.308-1.754-1.116,0.032-0.574,2.615c0.542,2.583,0.383,2.073,0.383,2.073s-2.391-3.731-4.305-4.209
		c-1.913-0.478,2.997,5.262,2.997,5.262s-1.499,0.51-1.403,1.977c0,0-0.797,0.478-0.765,1.818c0,0-0.893,2.551,3.731,4.974
		C232.828,231.469,231.776,227.164,231.776,227.164z"/>
	<path style="fill:#A3521C;" d="M165.788,191.487c0,0-0.792-3.415,0.049-6.633c0.841-3.217,0.049-6.584,0.99-6.782
		c0.94-0.198,1.386,3.96,1.386,3.96s6.782-6.188,9.108-6.782c2.327-0.594-0.495,2.574-0.594,2.97
		c-0.099,0.396,1.386,0.891,1.584,2.525c0.198,1.633-0.495,3.267-0.396,4.257c0.099,0.99-0.297,3.614-1.188,5.148
		c-0.891,1.535-4.257,5.445-6.435,5.891C168.115,196.486,165.788,191.487,165.788,191.487z"/>
	<path style="fill:#402289;" d="M165.24,191.588l4.957,2.845c0.855,0.491,1.947,0.191,2.43-0.669l10.068-17.896
		c0.49-0.87,0.165-1.973-0.718-2.44l-6.241-3.294c-0.891-0.47-1.994-0.105-2.429,0.803l-8.785,18.344
		C164.122,190.12,164.435,191.126,165.24,191.588z"/>
	<path style="fill:#AEE5FF;" d="M173.19,173.114l-7.251,15.252c-0.358,0.753-0.066,1.655,0.666,2.055l2.061,1.127
		c0.752,0.411,1.696,0.144,2.121-0.6l8.486-14.867c0.458-0.802,0.129-1.824-0.71-2.209l-3.296-1.513
		C174.485,172.001,173.56,172.337,173.19,173.114z"/>
	<g>
		<ellipse style="fill:#D6DDFC;" cx="265.5" cy="392" rx="53.5" ry="9"/>
		<g>
			
				<rect x="318.428" y="164.544" transform="matrix(0.9876 0.1568 -0.1568 0.9876 33.6954 -47.7332)" style="fill:#402289;" width="1.913" height="50.308"/>
			<path style="fill:#FF82D4;" d="M277.375,216.992c0,0,7.951,3.571,16.709,11.054c0,0,6.037,5.017,7.313,6.463l11.225-17.177
				l3.741,2.296c0,0-7.143,21.089-14.711,23.044c-7.568,1.956-18.623-8.844-18.623-8.844L277.375,216.992z"/>
			<path style="fill:#FF82D4;" d="M316.066,220.053c0,0,3.359-3.359,3.954-5.187c0.595-1.828-0.765-2.636-0.723-3.316
				c0.042-0.68-0.255-1.913-0.765-2.296c-0.51-0.383-1.106-1.956-1.956-2.338c-0.85-0.383-1.616-0.468-2.083-0.638
				c-0.468-0.17-0.17,1.531,1.233,2.041c0,0-1.105-0.213-1.743,0.34c-0.638,0.553,0.383,0.638,0.383,1.488
				c0,0.85-2.849,3.231-1.743,7.186C313.728,221.286,316.066,220.053,316.066,220.053z"/>
			<path style="fill:#AE4C00;" d="M285.92,255.38l-16.04-0.66l-2.33-0.1c0,0-0.63-7.53-5.86-17.22c-2.73-5.06-3.51-9.7-3.64-12.98
				c-0.12-3.01,0.32-4.88,0.32-4.88c6.63-6.88,19.01-2.55,19.01-2.55s4.33,3.32,6.88,10.33
				C286.81,234.34,285.92,255.38,285.92,255.38z"/>
			<path style="fill:#933E03;" d="M270.28,253.77c-0.13,0.33-0.26,0.65-0.4,0.95l-2.33-0.1c0,0-0.63-7.53-5.86-17.22
				c-2.73-5.06-3.51-9.7-3.64-12.98l6.03-4.75c0,0,0.26,6.42,1.67,13.33C267.17,239.92,275.14,241.04,270.28,253.77z"/>
			<path style="fill:#FF82D4;" d="M295.807,381.214c-0.957-2.806-1.914-20.206-1.914-20.206l-0.012,0.001
				c-0.819-13.547-1.764-30.381-1.666-34.493c0.17-7.143-0.51-11.735-0.51-11.735l-13.095-0.68l3.061,10.799
				c0,0-2.211,14.031,2.381,27.466c1.056,3.091,1.953,6.179,2.711,9.107l-0.043,0.003c0,0,2.902,15.657,3.221,19.675
				c0.319,4.018-0.446,4.847-0.446,4.847s2.806,1.403,4.337,2.487c1.531,1.084,9.247,1.467,10.268,0.446
				C305.118,387.911,296.763,384.02,295.807,381.214z"/>
			<path style="fill:#340069;" d="M290.067,382.809c0,0-0.989,2.423-1.339,5.262c-0.078,0.633-0.139,1.118-0.186,1.49
				c-0.087,0.687,0.392,1.309,1.078,1.403c1.307,0.178,3.399,0.423,5.039,0.423c2.583,0,2.806,1.18,7.27,0.957
				c4.464-0.223,7.111-1.371,7.015-2.168c-0.096-0.797-8.833-4.751-8.833-4.751s-0.606,1.307-2.997,1.307
				S290.991,385.615,290.067,382.809z"/>
			<path style="fill:#FF82D4;" d="M245.645,356.971c8.434-8.882,20.366-21.664,22.419-25.013c3.231-5.272,4.252-19.558,4.252-19.558
				l-14.966-0.68l1.616,16.837c-10.853,8.451-24.041,31.42-24.713,32.596c-1.213,1.579-2.264,2.903-2.92,3.635
				c-2.687,3.004-3.815,3.022-3.815,3.022s0.922,2.999,1.194,4.855c0.272,1.856,5.322,7.704,6.764,7.738
				c1.443,0.034-1.509-8.697-0.139-11.326C236.263,367.3,242.015,360.919,245.645,356.971z"/>
			<path style="fill:#FF82D4;" d="M279.483,189.82c2.172,1.371,4.723,4.271,3.851,9.526c-0.872,5.255,1.418,6.221,1.418,6.221
				s-0.992,4.532-4.489,6.217c-3.497,1.685-5.618,0.093-5.618,0.093s3.514,5.69,3.54,5.885c0.465,3.439-10.053-0.947-10.053-0.947
				s-0.02-5.593-0.767-7.089c-0.746-1.495-6.89-7.889-3.076-14.613C268.104,188.39,275.25,187.148,279.483,189.82z"/>
			<path style="fill:#1D0076;" d="M280.5,196.52c-3.44,0.7-5.1,0.32-5.68,2.36c-0.57,2.04-0.57,3.38-1.91,3.83
				c0,0-0.83-1.28-2.17-0.51c-1.03,0.58-1.19,2.97-0.09,4.3c0.33,0.41,0.79,0.73,1.37,0.86c0,0-0.32,7.97-4.72,10.84
				c-4.4,2.87-10.14,0.96-14.35,4.72c-4.21,3.77-10.97,3.57-13.14-1.53c-0.89-2.08-0.95-3.55-0.47-4.73
				c0.69-1.71,2.53-2.82,4.68-4.32c3.64-2.55,1.21-4.02,3.76-5.94c2.55-1.91,6.44-1.14,8.04-2.1c1.59-0.96,3.83-2.49,4.02-4.08
				c0,0,1.08-6.44,3.76-8.23c2.68-1.78,4.97-2.36,6.12-5.23c1.15-2.87,4.34-4.59,7.15-3.44c2.8,1.15,1.78,3.06,3.44,3.06
				s3.95,0.7,4.85,3.95C286.05,193.59,283.94,195.82,280.5,196.52z"/>
			<path style="fill:#FF82D4;" d="M252.885,225.602c2.232-5.612,6.633-8.865,9.758-7.526c3.125,1.339,1.786,7.462-1.913,13.967
				c-3.699,6.505-12.373,17.219-17.092,18.75c-4.719,1.531-15.434-21.748-15.434-21.748l3.508-2.742l12.372,16.008
				C244.084,242.311,250.653,231.214,252.885,225.602z"/>
			<path style="fill:#340069;" d="M297.83,317.67l-38.25-3.72l-17.71-1.72c1.53-42.18,26.36-58.67,26.36-58.67l2.05,0.21l15.64,1.61
				C293.74,275.75,297.83,317.67,297.83,317.67z"/>
			<path style="fill:#402289;" d="M330.456,167.374h-14.29c-0.526,0-1.008-0.296-1.246-0.766l-2.784-5.498
				c-0.47-0.929,0.205-2.027,1.246-2.027h14.29c0.527,0,1.008,0.296,1.246,0.766l2.784,5.498
				C332.173,166.276,331.497,167.374,330.456,167.374z"/>
			<path style="fill:#3EF7FF;" d="M328.37,166.535h-11.418c-0.421,0-0.806-0.215-0.996-0.557l-2.224-4.001
				c-0.376-0.676,0.163-1.476,0.996-1.476h11.418c0.421,0,0.805,0.215,0.996,0.557l2.224,4.002
				C329.742,165.735,329.202,166.535,328.37,166.535z"/>
			<polygon style="fill:#402289;" points="324.569,167.215 323.995,170.053 320.839,170.053 321.317,167.31 			"/>
			<path style="fill:#280354;" d="M257.33,300.17c0.44,5.85,1.29,10.36,2.25,13.78l-17.71-1.72c1.53-42.18,26.36-58.67,26.36-58.67
				l2.05,0.21C269.36,255.62,256.05,282.79,257.33,300.17z"/>
			<path style="fill:#13025B;" d="M272.02,207.36c0,0-0.32,7.97-4.72,10.84c-4.4,2.87-10.14,0.96-14.35,4.72
				c-4.21,3.77-10.97,3.57-13.14-1.53c-0.89-2.08-0.95-3.55-0.47-4.73c0.25,1.05,0.68,2.19,1.41,2.76c1.58,1.25,0.5-2.92,3.75-0.42
				s6.75,2.83,9.33-0.25c2.59-3.08,3.59-3,10.75-5.08c7.17-2.09,6-7.17,6-7.17h0.07C270.98,206.91,271.44,207.23,272.02,207.36z"/>
		</g>
		<path style="fill:#340069;" d="M230.221,366.15c0,0-2.436,0.957-4.732,2.663c-0.512,0.38-0.905,0.671-1.207,0.894
			c-0.557,0.411-0.677,1.187-0.271,1.748c0.773,1.069,2.04,2.751,3.173,3.938c1.783,1.869,1.083,2.845,4.326,5.921
			c3.243,3.076,5.9,4.199,6.411,3.579c0.511-0.619-2.659-9.671-2.659-9.671s-1.364,0.464-3.015-1.267
			C230.597,372.226,228.829,368.756,230.221,366.15z"/>
	</g>
	<g>
		<ellipse style="fill:#D6DDFC;" cx="504.75" cy="406.5" rx="62.75" ry="9"/>
		<ellipse style="fill:#D6DDFC;" cx="397.5" cy="406" rx="35.25" ry="6.5"/>
		<g>
			<path style="fill:#FF7D18;" d="M420.21,397.204c-1.632-2.15-2.745-1.593-2.886-2.209c-0.013-0.057-0.013-0.147-0.009-0.251
				c3.998-1.834,4.32-5.751,3.84-8.324c-0.684-3.664-4.957-7.051-10.104-7.479c-5.147-0.428-20.679-4.004-21.095-5.428
				c-0.416-1.424,1.473-6.727-3.089-9.915c-4.563-3.187-7.128-2.051-8.99-1.546c0,0-3.567,1.544-4.826,5.698
				c-1.259,4.154-5.459-0.569-5.197,4.029c0.261,4.598,2.562,7.712,7.189,6.361l5.31-0.47c0,0,0.329,3.539,1.902,7.083
				c-1.515,0.806-4.673,2.676-6.288,5.015c-1.131,1.638-1.589,3.369-1.54,4.616c-2.307,1.353-4.313,2.886-3.752,4.116
				c0.965,2.113,4.064-1.033,6.578-1.419c2.223-0.342,10.783-0.069,14.596-4.149c3.952,1.332,8.848,1.992,14.779,2.496
				c0.543,0.678,1.258,1.304,2.198,1.819c5.059,2.772,6.705,1.132,7.648,2.904c0.943,1.772,0.745,7.045,3.429,6.184
				C422.587,405.472,421.843,399.354,420.21,397.204z M381.092,389.855c0.67-0.401,1.568-0.721,2.367-0.959
				c-1.165,0.911-2.64,1.997-3.946,2.759C380.081,390.829,380.619,390.138,381.092,389.855z"/>
			<path style="fill:#8437FF;" d="M480.86,206.89c0,0-2.283,4.371-3.303,12.24c-1.02,7.869-14.572,34.827-14.572,34.827
				s6.995,1.457,7.723,8.452c0,0,10.055-6.995,12.386-16.175C485.426,237.054,482.56,209.658,480.86,206.89z"/>
			<path style="fill:#880030;" d="M475.226,383.308c0,0-5.052,12.143-5.052,15.543c0,3.4-0.389,5.149-0.389,6.703
				c0,1.554-17.486,1.263-20.498,1.263c-3.012,0-5.149-0.291-5.149-1.263c0-0.972,10.298-3.789,13.6-6.023
				c3.303-2.234,6.509-18.069,6.509-18.069L475.226,383.308z"/>
			<path style="fill:#880030;" d="M534.793,368.055c0,0,11.11,7.039,14.461,7.616c3.351,0.577,5.008,1.257,6.54,1.521
				s-1.723,17.447-2.234,20.415c-0.511,2.968-1.161,5.025-2.119,4.86c-0.957-0.165-1.986-10.791-3.627-14.426
				c-1.641-3.634-16.702-9.481-16.702-9.481L534.793,368.055z"/>
			<path style="fill:#210549;" d="M497.181,350.861c7.189,28.367,37.11,35.361,37.11,35.361l11.852-18.652
				c0,0-25.452-11.852-29.338-18.264c-3.886-6.412-2.914-65.865-2.914-65.865l-24.311-18.446l-5.61,0.182
				C483.969,265.178,489.992,322.494,497.181,350.861z"/>
			<path style="fill:#680088;" d="M522.83,265.37l-5.96-0.03l-32.9-0.16c0,0-4.42-57.12-3.11-58.29c1.31-1.17,15.06-6.85,15.06-6.85
				l9.65,0.09c0,0,14.25,4.57,14.39,5.59c0.04,0.28,0.28,4.94,0.6,11.55C521.4,234.62,522.83,265.37,522.83,265.37z"/>
			<path style="fill:#FF82D4;" d="M490.317,171.703c-2.296,1.449-4.991,4.514-4.07,10.068c0.921,5.554-1.499,6.575-1.499,6.575
				s1.478,11.896,9.385,8.824c1.021-0.397,0.031,4.225,0.171,4.38c3.868,4.266,11.263-1.422,11.263-1.422s-2.666-6.383-1.877-7.964
				c0.789-1.58,6.715-7.76,2.684-14.866C502.343,170.192,494.791,168.879,490.317,171.703z"/>
			<path style="fill:#580477;" d="M522.83,265.37l-5.96-0.03l-0.13-0.03c0,0-0.62-18.06-3.49-25.81s2.63-26.62,2.63-26.62l4.68,4.39
				C521.4,234.62,522.83,265.37,522.83,265.37z"/>
			<path style="fill:#1D0076;" d="M485.28,190.715c0,0-1.263,7.675,4.469,9.18c5.732,1.506,9.569-3.497,10.589-9.472
				c0,0-1.069-0.874-3.012,2.137c-1.943,3.012-5.392,2.38-6.072,1.506C490.575,193.192,489.555,189.354,485.28,190.715z"/>
			<path style="fill:#8437FF;" d="M513.259,213.374c0,0,2.113-6.994,5.537-7.796c3.424-0.802,7.432,7.577,7.432,9.909
				c0,2.331,4.08,13.333,4.08,18.579c0,5.246-2.55,10.055-2.55,10.055L513.259,213.374z"/>
			<path style="fill:#1D0076;" d="M507.612,178.766c0,0,0.073-2.915-2.696-5.683c-2.35-2.35-6.776-5.574-12.714-3.862
				c-5.938,1.712-8.051,5.865-9.253,5.829c0,0,1.603,2.368,6.157,2.295c4.554-0.073,9.472-1.238,9.472-1.238
				s-2.914,3.898-1.457,5.975c1.457,2.076,1.275,3.607,1.275,3.607l1.275,0.182c0,0-0.146-2.587,2.113-3.097
				c2.259-0.51,1.712,3.898,0.692,5.282c-1.02,1.384-2.295,1.166-2.295,1.166l3.352,3.206
				C503.532,192.427,511.401,184.376,507.612,178.766z"/>
			<path style="fill:#FF82D4;" d="M507.867,206.209c0,0,1.166,0.68,4.275-1.069c0,0,9.909,19.429,13.406,25.064
				c3.497,5.635,3.594,8.549,2.429,13.503c-1.166,4.955-9.618,1.943-13.115-9.617C511.364,222.53,507.867,206.209,507.867,206.209z"
				/>
			<path style="fill:#5115B2;" d="M511.659,189.456c0,0-1.057-1.541-1.884-1.639c-0.828-0.098-8.275,11.139-8.968,12.422
				c-1.071,1.983,4.876,7.558,5.695,7.003c2.313-1.572,8.306-11.627,8.555-12.702C515.306,193.464,511.659,189.456,511.659,189.456z
				"/>
			<path style="fill:#FF82D4;" d="M512.142,205.141c0,0-0.632-7.942-0.874-8.5c-0.243-0.559-3.279-2.137-4.274-2.574
				c-0.996-0.437-3.133,0.316-2.817,0.899c0.316,0.583,2.016,0.17,2.016,0.17l1.02,0.632c0,0-2.647-0.316-3.424,0.146
				c-0.777,0.461-0.413,1.068-0.413,1.068s-0.753,0.34-0.874,0.85c-0.121,0.51,0.194,0.899,0.194,0.899s-0.51,0.364-0.534,0.996
				c-0.024,0.631,0.68,1.457,0.971,1.579c0.292,0.121,1.02,0,1.02,0l0.559-0.437c0,0,0.631,2.283,1.676,3.473
				c1.044,1.19,1.482,1.87,1.482,1.87S510.951,207.788,512.142,205.141z"/>
			<path style="fill:#340069;" d="M517,295.88c-7.19,15.34-24.87,40.21-28.95,51.87c-4.08,11.66-7,38.86-7,38.86l-5.6-1.24
				l-17.13-3.81c0,0,9.52-46.24,15.35-61.01c5.83-14.77,19.63-41.38,19.63-41.38l-8.55-14.19l31.99,0.33l6.09,0.06
				C522.83,265.37,524.19,280.53,517,295.88z"/>
			<path style="fill:#FF82D4;" d="M462.985,253.957c0,0-13.601,14.718-21.761,26.764c0,0-3.497,3.303-5.926,4.76
				c-2.429,1.457-1.263,4.275-1.263,4.663c0,0.389-0.097,2.526,0.194,3.206c0.292,0.68,2.72,1.749,3.012,2.429
				c0.291,0.68,2.914-0.68,4.566-1.457c1.652-0.777,4.469-3.789,4.76-6.509c0.291-2.72,21.761-19.915,24.287-26.132
				C470.854,261.68,470.951,254.491,462.985,253.957z"/>
			<path style="fill:none;stroke:#A7005C;stroke-miterlimit:10;" d="M437.921,292.961c0,0,1.166,8.16-10.88,24.675
				c-12.046,16.515-37.255,44.915-37.085,55.876"/>
			<path style="fill:#5D33B2;" d="M382.135,364.594c0,0-0.85,7.009,4.737,11.983c5.587,4.974,11.883,4.178,13.232,2.316
				c1.349-1.862-1.678-5.614-6.025-6.739c-4.347-1.126-3.021-5.183-6.092-7.763C384.915,361.811,382.394,363.629,382.135,364.594z"
				/>
			<path style="fill:#5D33B2;" d="M418.469,382.646c0,0,1.586-2.24,5.978-0.432c4.391,1.808,6.896-3.637,8.833-0.842
				c1.937,2.795-3.254,5.393-6.688,4.349s-4.859-1.556-5.681-0.272C420.088,386.732,418.469,382.646,418.469,382.646z"/>
			<path style="fill:#2A0259;" d="M517,295.88c-7.19,15.34-24.87,40.21-28.95,51.87c-4.08,11.66-7,38.86-7,38.86l-5.6-1.24
				c0.53-5.99,3.05-29.12,11.55-44.54c9.83-17.83,26-39.66,28.17-58c1.15-9.73,1.49-14.85,1.57-17.52l6.09,0.06
				C522.83,265.37,524.19,280.53,517,295.88z"/>
		</g>
	</g>
	<g>
		<path style="fill:#FF82D4;" d="M641.435,280.024l-14.184,7.901l-4.448-0.658l0.711,5.349l0.537,0.038c0,0,2.733,0.835,4.784-0.846
			c0,0,18.77-1.144,21.307-4.445C650.142,287.362,646.804,280.889,641.435,280.024z"/>
		<path style="fill:#AE4C00;" d="M654.111,246.654c0,0-3.273,2.069-5.236,9.32c-1.963,7.251-7.852,23.995-7.852,23.995
			s7.678,4.068,9.415,8.545c0,0,7.834-20.514,9.408-29.014s-1.558-11.532-3.157-13.704
			C656.688,245.796,655.331,245.837,654.111,246.654z"/>
		<path style="fill:#FF6A18;" d="M683.41,299.32c0,0-1.3,1.92-5.55,2.45c-1.55,0.19-3.49,0.2-5.9-0.14
			c-5.41-0.75-13.15-1.73-18.5-2.41c-3.58-0.44-6.08-0.74-6.08-0.74s0.06-0.76,0.17-2.1c0.69-8.37,3.33-39.23,5.5-45.48
			c2.52-7.25,9.87-9.56,13.13-9.45c0,0,7.77,1.47,11.76,8.09c1.07,1.76,1.96,6.15,2.68,11.62c0.01,0.01,0.01,0.02,0.01,0.02
			C682.62,276.17,683.41,299.32,683.41,299.32z"/>
		<path style="fill:#CC5E15;" d="M683.41,299.32c0,0-1.3,1.92-5.55,2.45c-0.54-0.09-0.86-0.15-0.86-0.15
			c0.75-8.5-1.38-10.24-1.38-10.24c-3.87,6.5-21.62,6.74-21.62,6.74l-0.54,1.1c-3.58-0.44-6.08-0.74-6.08-0.74s0.06-0.76,0.17-2.1
			c5.3-3.84,14.82-7.68,15.83-7.88c1.24-0.25,6.74-12.88,6.74-12.88l8.13-23.12c0,0,0.99,3.52,2.37,8.66
			c0.01,0.01,0.01,0.02,0.01,0.02C682.62,276.17,683.41,299.32,683.41,299.32z"/>
		<path style="fill:#372900;" d="M616.115,310.071c0,0-3.921,1.961-3.291,3.711c0.63,1.751,2.241,2.941,5.602,2.451
			c3.361-0.49,9.453-1.05,9.453-1.05L616.115,310.071z"/>
		<path style="fill:#2B0459;" d="M633.516,295.961c0,0-11.974-2.941-19.116,1.891c-7.142,4.832-1.68,14.495,9.978,16.7
			c11.659,2.206,14.284,2.416,14.284,2.416l5.987-18.696L633.516,295.961z"/>
		<path style="fill:#FF82D4;" d="M656.112,219.576c-1.895,1.196-4.12,3.726-3.36,8.31c0.76,4.585-1.237,5.427-1.237,5.427
			s1.22,9.819,7.747,7.284c0.843-0.328,0.025,3.488,0.141,3.615c3.193,3.521,9.297-1.174,9.297-1.174s-2.201-5.269-1.549-6.573
			c0.651-1.305,5.543-6.405,2.216-12.271C666.038,218.328,659.804,217.245,656.112,219.576z"/>
		<path style="fill:#1D0076;" d="M669.404,220.783c0,0,0.047-2.348-4.226-4.601c-4.273-2.254-9.156-1.596-13.287,0.798
			c-4.132,2.395-1.831,7.137,0.094,7.935c1.925,0.798,5.634-1.409,8.498-1.033c2.864,0.376,0.423,3.897,1.878,5.447
			c1.456,1.549,1.925,1.315,1.925,1.315s0.188-2.16,1.831-2.113c1.643,0.047,1.737,3.803,0.376,5.024
			c-1.362,1.221-2.16,0.798-2.16,0.798l2.723,2.582C667.056,236.935,677.338,224.446,669.404,220.783z"/>
		<path style="fill:#340069;" d="M682.461,300.163c0,0,2.206,9.663-3.046,16.91c-5.252,7.247-24.893-2.416-31.93-1.26
			c-7.037,1.155-9.243,3.466-9.243,3.466s-7.562-4.201-7.142-11.659c0.42-7.457,6.617-10.398,16.28-9.138
			C657.043,299.742,679.73,302.578,682.461,300.163z"/>
		<polygon style="fill:#402289;" points="632.71,295.856 643.004,294.106 663.52,297.887 647.975,301.108 		"/>
		<path style="fill:#572A11;" d="M660.08,318.022c0.117-1.76-0.801-3.26-5.181-3.26c-1.339,0-2.794,0.737-4.424,0.815
			c-1.63,0.078-11.255-1.436-13.428,2.523c-2.173,3.958,3.182,5.123,10.323,4.269C654.511,321.515,659.847,321.515,660.08,318.022z"
			/>
		<polygon style="fill:#8031FF;" points="617.866,274.219 623.748,295.646 647.975,301.108 642.864,278.841 		"/>
		<path style="fill:#FF82D4;" d="M664.08,282.009l-13.584,10.171l-4.691-0.07l1.471,5.462l0.56-0.035c0,0,2.941,0.49,4.831-1.54
			c0,0,19.256-3.781,21.427-7.562C674.093,288.434,669.752,282.166,664.08,282.009z"/>
		<path style="fill:#AE4C00;" d="M680.04,259.24c-0.44,8.63-5.92,29.38-5.92,29.38c-0.86-1.57-2.47-2.88-4.16-3.92
			c-2.84-1.74-5.88-2.69-5.88-2.69s3.63-17.38,4.62-24.82c0.99-7.45,3.97-9.93,3.97-9.93c1.1-0.97,2.44-1.19,2.44-1.19
			c0.78,0.81,1.84,1.73,2.78,3.15C679.21,251.21,680.3,254.2,680.04,259.24z"/>
		<path style="fill:#994105;" d="M680.04,259.24c-0.44,8.63-5.92,29.38-5.92,29.38c-0.86-1.57-2.47-2.88-4.16-3.92
			c1.9-4.55,4.47-11.6,5.79-19.08c1.76-9.95,2.45-13.28,2.14-16.4C679.21,251.21,680.3,254.2,680.04,259.24z"/>
	</g>
	<g>
		<ellipse style="fill:#D6DDFC;" cx="119.167" cy="439.667" rx="63.5" ry="13"/>
		<g>
			<g>
				<path style="fill:#FF7D18;" d="M156.7,337.53c-3.37,8.76-10.34,16.02-19.71,19.5l-4.53,1.68l-7.71,2.86l-12.67-130.42l8.51,1.52
					c0,0,26.47,36.87,37.5,85.15C159.64,324.6,159.04,331.43,156.7,337.53z"/>
				<path style="fill:#CC5E15;" d="M156.7,337.53c-3.37,8.76-10.34,16.02-19.71,19.5l-4.53,1.68C124.11,331.56,117,246,117,246
					C121.59,250.31,137,338.333,156.7,337.53z"/>
				<path style="fill:#FF82D4;" d="M109.011,396.419c0,0,5.445,23.463,5.94,29.7c0.495,6.237-0.693,7.524-0.693,7.524
					s4.356,2.178,6.732,3.861c2.376,1.683,14.355,2.277,15.939,0.693c1.584-1.584-11.385-7.623-12.87-11.979
					c-1.485-4.356-1.287-28.71-1.287-28.71L109.011,396.419z"/>
				<path style="fill:#FF82D4;" d="M122.277,170.202c0,0,15.048,23.859,19.8,36.135c0,0,19.305-8.712,23.859-16.236l4.356,5.94
					c0,0-22.176,24.354-32.274,22.968c-10.098-1.386-19.107-33.363-19.107-33.363L122.277,170.202z"/>
				<path style="fill:#FF82D4;" d="M112.82,349.179c0,0-20.957,11.873-26.798,14.116c-5.841,2.243-7.412,1.468-7.412,1.468
					s-0.854,4.795-1.794,7.551s1.886,14.412,3.854,15.482c1.968,1.07,4.083-13.079,7.839-15.738
					c3.756-2.659,27.168-9.373,27.168-9.373L112.82,349.179z"/>
				<path style="fill:#B559F0;" d="M83.61,364.215c0,0-4.043-0.405-8.422,0.322c-0.038,0.006-0.077,0.013-0.114,0.019
					c-2.292,0.38-3.835,2.545-3.429,4.833c0.312,1.759,0.726,3.778,1.217,5.437c1.137,3.845-0.521,4.697,1.775,11.244
					c2.297,6.548,5.171,9.982,6.315,9.489c1.145-0.493,3.186-15.24,3.186-15.24s-2.213-0.327-3.265-3.887
					C79.82,372.872,79.84,366.827,83.61,364.215z"/>
				<path style="fill:#FF7D18;" d="M130.49,194.46l-8.83,34.07l-1.07,4.14l-17.82-1.58l-9.28-44.24l-2.6-12.39
					c0,0,5.42-7.44,13.11-12.93l17.78,8.37C121.78,169.9,128.71,184.16,130.49,194.46z"/>
				<path style="fill:#CC5E15;" d="M121.66,228.53l-1.07,4.14l-17.82-1.58l-9.28-44.24l7.18-5.35c0,0,1.5,28,6.66,36.17
					C111.37,224.04,118.66,227.37,121.66,228.53z"/>
				<path style="fill:#402289;" d="M144.249,131.824c0,0,2.343,4.017,0.921,11.967c-1.423,7.95-7.699,18.914-6.695,23.768
					c0,0-13.418-0.893-22.456-10.043C109.193,150.607,135.713,129.899,144.249,131.824z"/>
				<path style="fill:#FF82D4;" d="M142.408,127.806c2.066,3.41,3.599,9.206-1.255,15.901c-4.854,6.695-2.343,9.624-2.343,9.624
					s-4.519,5.607-10.545,5.523c-6.026-0.084-7.867-3.766-7.867-3.766s-0.753,6.109,0.837,10.629l-13.307-8.285
					c0,0,3.85-7.783,3.85-10.377c0-2.594-4.101-15.734,5.858-22.429C127.595,117.931,138.382,121.161,142.408,127.806z"/>
				<path style="fill:#5D33B2;" d="M104.079,141.029c1.564,5.96,6.109,12.721,16.57,18.244c0,0-0.586-8.118,7.197-16.403
					c7.783-8.285,13.976,1.339,16.487-7.365c2.511-8.704-4.299-16.05-13.306-17.575C120.147,116.09,98.885,121.235,104.079,141.029z
					"/>
				<path style="fill:#402289;" d="M103.995,161.533l3.682-5.44c0,0,12.135,6.611,14.06,9.792c1.925,3.18,1.339,6.528,1.339,6.528
					L103.995,161.533z"/>
				<path style="fill:#FF7D18;" d="M140.59,399.19l-25.89,0.49l-15.69,0.3c0,0-16.04-97.81-16.04-126.92
					c0-29.1,19.8-41.97,19.8-41.97l3.47,0.28l9.01,0.71l16.83,123.75L140.59,399.19z"/>
				<path style="fill:#CC5E15;" d="M114.7,399.68l-15.69,0.3c0,0-16.04-97.81-16.04-126.92c0-29.1,19.8-41.97,19.8-41.97l3.47,0.28
					c-4.44,8.65-22.071,32.623-9.57,50.96c13.58,19.92,3.24,27.33-1.42,34.67L114.7,399.68z"/>
				<path style="fill:#340069;" d="M91.587,232.473c0,0,5.742,12.177,5.94,24.552l4.455-0.792c0,0-2.772-13.959-7.029-22.869
					L91.587,232.473z"/>
				<path style="fill:#FF82D4;" d="M90.894,174.459c0,0,5.643-1.089,9.207,4.851c3.564,5.94-10.296,45.343-10.296,45.343
					l27.819-7.92c0,0,0.891-2.97,2.376-6.732c1.485-3.762,2.376-3.663,2.574-2.376c0.198,1.287-0.924,4.785-0.924,4.785
					s3.894-1.518,6.006-1.914c2.112-0.396,4.026-0.792,5.016-0.462c0.99,0.33-0.462,1.188-0.462,1.188s1.98,0.066,2.64,0.66
					c0.66,0.594-1.584,1.056-1.584,1.056s2.376,0.198,2.508,0.792c0.132,0.594-2.508,1.452-2.508,1.452s1.65-0.066,1.65,0.462
					s-9.306,6.468-12.738,6.864c-3.432,0.396-26.598,14.982-37.356,15.51c-10.758,0.528-6.666-12.936-6.666-12.936l9.966-40.393
					L90.894,174.459z"/>
				<path style="fill:#340069;" d="M89.805,224.652c0,0-6.831,5.049-9.108,18.414c-2.277,13.365-1.98,19.404-1.98,19.404
					l-3.861,0.198C74.855,262.669,72.479,231.087,89.805,224.652z"/>
				<path style="fill:#340069;" d="M107.13,297.62c-6.63,15.44-30.27,14.95-35.34,4.75c-0.38-0.77-0.74-1.54-1.06-2.33
					C63.18,281.99,70,260.79,70,260.79l32.87-5.85l2.77-0.49C105.64,254.45,113.76,282.17,107.13,297.62z"/>
				<path style="fill:#280354;" d="M107.13,297.62c-6.63,15.44-30.27,14.95-35.34,4.75c-0.38-0.77-0.74-1.54-1.06-2.33
					c4.69,2,10.71,2.67,17.94-0.37c16.44-6.92,14.91-36.81,14.2-44.73l2.77-0.49C105.64,254.45,113.76,282.17,107.13,297.62z"/>
			</g>
			<path style="fill:#B559F0;" d="M115.274,429.256c0,0-1.535,3.762-2.079,8.168c-0.121,0.983-0.216,1.736-0.289,2.314
				c-0.135,1.066,0.608,2.032,1.673,2.178c2.029,0.277,5.276,0.656,7.823,0.656c4.01,0,4.356,1.832,11.286,1.485
				s11.039-2.129,10.89-3.366c-0.148-1.238-13.766-8.129-13.766-8.129s-0.886,2.782-4.599,2.782
				C122.501,435.345,116.71,433.612,115.274,429.256z"/>
		</g>
	</g>
</g>
</svg>
